M48
;Layer_Color=9474304
;FILE_FORMAT=2:5
INCH,TZ
;TYPE=PLATED
T1F00S00C0.01968
T2F00S00C0.02362
T3F00S00C0.03937
T4F00S00C0.04331
T5F00S00C0.12205
%
T01
X129921Y31496
X165354Y62008
X164370Y82677
X158465Y107283
Y115157
X152559Y102362
X138779
X132874Y100394
X126969Y97441
X119095Y96457
X114173Y101378
X111221Y107283
X81693Y115157
X80709Y155512
X92520Y153543
X87598Y163386
X129921Y157480
X137795
X155512Y153543
X37402Y149606
Y68898
X17717Y188976
X65945Y180118
X67913Y222441
X118110Y225394
X125984Y258858
X140748Y184055
T02
X103347Y240158
X111221
T03
X33465Y222441
X49213
T04
X198819Y97126
Y107126
Y117126
Y127126
Y137126
X67913Y145512
Y155512
Y165512
X49213Y132126
Y122126
Y112126
Y102126
X172244Y182992
Y192992
X160433Y237126
Y247126
X159528Y264764
X149528
T05
X158465Y32480
X20669Y121063
X197835Y224410
M30
